<?xml version="1.0" standalone="no"?><!DOCTYPE svg PUBLIC "-//W3C//DTD SVG 1.1//EN" "http://www.w3.org/Graphics/SVG/1.1/DTD/svg11.dtd"><svg class="icon" width="32px" height="32.00px" viewBox="0 0 1024 1024" version="1.1" xmlns="http://www.w3.org/2000/svg"><path fill="#e94037" d="M403.937882 63.608471a60.235294 60.235294 0 0 1 56.982589 15.902117l429.236705 429.176471a60.235294 60.235294 0 0 1 0 85.172706l-294.309647 294.309647a60.235294 60.235294 0 0 1-85.172705 0L81.438118 458.932706a60.235294 60.235294 0 0 1-15.841883-56.982588l66.740706-271.540706 271.661177-66.861177zM389.541647 5.12L118.061176 71.860706a60.235294 60.235294 0 0 0-44.15247 44.15247L7.047529 387.553882a120.470588 120.470588 0 0 0 31.804236 113.965177l429.236706 429.236706a120.470588 120.470588 0 0 0 170.345411 0l294.309647-294.309647a120.470588 120.470588 0 0 0 0-170.345412L503.506824 36.864A120.470588 120.470588 0 0 0 389.541647 5.12z"  /><path fill="#e94037" d="M378.277647 364.664471a49.272471 49.272471 0 1 1-69.752471-69.692236 49.272471 49.272471 0 0 1 69.692236 69.692236z m42.586353 42.586353a109.507765 109.507765 0 1 0-154.925176-154.925177 109.507765 109.507765 0 0 0 154.925176 154.925177z"  /></svg>